<svg xmlns="http://www.w3.org/2000/svg" width="200" height="200" viewBox="0 0 200 200">
  <!-- Body -->
  <path d="M50,150 C70,120 130,120 150,150 Q130,180 50,150 Z" fill="#4e4e4e" />

  <!-- Head -->
  <path d="M20,80 Q60,40 100,80 Q140,120 100,160 Q60,120 20,80 Z" fill="#4e4e4e" />

  <!-- Eyes -->
  <circle cx="70" cy="80" r="5" fill="#fff" />
  <circle cx="90" cy="80" r="5" fill="#fff" />

  <!-- Horns -->
  <path d="M60,50 Q50,20 40,50" fill="#4e4e4e" />
  <path d="M100,50 Q90,20 80,50" fill="#4e4e4e" />

  <!-- Tail -->
  <path d="M150,150 Q160,130 180,100" fill="#4e4e4e" />

  <!-- Legs -->
  <rect x="60" y="150" width="10" height="20" fill="#4e4e4e" />
  <rect x="130" y="150" width="10" height="20" fill="#4e4e4e" />
</svg>
